<?xml version="1.0" encoding="UTF-8" standalone="no"?>
<!DOCTYPE svg PUBLIC "-//W3C//DTD SVG 1.1//EN" "http://www.w3.org/Graphics/SVG/1.1/DTD/svg11.dtd">
<svg width="100%" height="100%" viewBox="0 0 1280 720" version="1.1" xmlns="http://www.w3.org/2000/svg" xmlns:xlink="http://www.w3.org/1999/xlink" xml:space="preserve" xmlns:serif="http://www.serif.com/" style="fill-rule:evenodd;clip-rule:evenodd;stroke-linejoin:round;stroke-miterlimit:2;">
    <g transform="matrix(1.38229,0,0,1.62896,-52.527,-149.864)">
        <rect x="38" y="92" width="926" height="442" style="fill:rgb(241,241,233);"/>
    </g>
    <g id="git" transform="matrix(1,0,0,1,640,360)">
        <g transform="matrix(1,0,0,1,-100,-100)">
            <clipPath id="_clip1">
                <rect x="0" y="0" width="200" height="200"/>
            </clipPath>
            <g clip-path="url(#_clip1)">
                <path d="M196.217,91.083L108.892,3.767C103.885,-1.222 95.665,-1.222 90.658,3.767L72.567,21.892L95.567,44.892C97.15,44.355 98.81,44.082 100.481,44.082C108.884,44.082 115.798,50.996 115.798,59.398C115.798,61.101 115.514,62.791 114.958,64.4L137.108,86.567C138.726,86.004 140.426,85.717 142.139,85.717C150.541,85.717 157.455,92.631 157.455,101.034C157.455,105.108 155.83,109.018 152.942,111.891C150.071,114.767 146.171,116.384 142.108,116.384C138.046,116.384 134.145,114.767 131.275,111.891C126.928,107.532 125.599,100.965 127.908,95.258L107.167,74.625L107.167,129C108.633,129.716 110.017,130.691 111.233,131.9C117.134,137.862 117.134,147.605 111.233,153.566C108.352,156.45 104.439,158.072 100.362,158.072C96.286,158.072 92.373,156.45 89.492,153.566C86.616,150.7 84.997,146.802 84.997,142.741C84.997,138.681 86.616,134.783 89.492,131.916C91.008,130.416 92.717,129.283 94.533,128.533L94.533,73.625C88.799,71.281 85.033,65.673 85.033,59.478C85.033,57.439 85.441,55.42 86.233,53.542L63.633,30.833L3.75,90.675C-1.25,95.717 -1.25,103.875 3.75,108.916L91.083,196.225C93.497,198.641 96.776,200 100.192,200C103.607,200 106.886,198.641 109.3,196.225L196.217,109.308C198.637,106.895 199.999,103.614 199.999,100.196C199.999,96.777 198.637,93.496 196.217,91.083" style="fill:rgb(230,74,25);fill-rule:nonzero;"/>
            </g>
        </g>
    </g>
    <g id="error" transform="matrix(0.5,0,0,0.5,740,410)">
        <g transform="matrix(1,0,0,1,-100,-100)">
            <path d="M100,0C44.8,0 0,44.8 0,100C0,155.2 44.8,200 100,200C155.2,200 200,155.2 200,100C200,44.8 155.2,0 100,0ZM142.7,131.3C145.8,134.4 145.8,139.5 142.7,142.6C141.1,144.2 139.1,144.9 137,144.9C134.9,144.9 132.9,144.1 131.3,142.6L100,111.3L68.7,142.6C67.1,144.2 65.1,144.9 63,144.9C60.9,144.9 58.9,144.1 57.3,142.6C54.2,139.5 54.2,134.4 57.3,131.3L88.7,100L57.3,68.7C54.2,65.6 54.2,60.5 57.3,57.4C60.4,54.3 65.5,54.3 68.6,57.4L100,88.7L131.3,57.4C134.4,54.3 139.5,54.3 142.6,57.4C145.7,60.5 145.7,65.6 142.6,68.7L111.3,100L142.7,131.3Z" style="fill:rgb(207,55,54);fill-rule:nonzero;"/>
        </g>
    </g>
</svg>
