<?xml version="1.0" encoding="UTF-8" standalone="no"?>
<!DOCTYPE svg PUBLIC "-//W3C//DTD SVG 1.1//EN" "http://www.w3.org/Graphics/SVG/1.1/DTD/svg11.dtd">
<svg width="100%" height="100%" viewBox="0 0 1280 720" version="1.1" xmlns="http://www.w3.org/2000/svg" xmlns:xlink="http://www.w3.org/1999/xlink" xml:space="preserve" xmlns:serif="http://www.serif.com/" style="fill-rule:evenodd;clip-rule:evenodd;stroke-linejoin:round;stroke-miterlimit:2;">
    <g transform="matrix(1.36315,0,0,1.45749,-199.02,-240.486)">
        <rect x="146" y="165" width="939" height="494" style="fill:rgb(23,31,38);"/>
    </g>
    <g transform="matrix(0.390625,0,0,0.390625,540,260)">
        <g id="hexo">
            <g>
                <path d="M256.4,25.8L56.4,141.3L56,371.5L255.6,486.2L455.6,370.7L456,140.5L256.4,25.8ZM349,354.6L330.6,365.3L312,354.3L312,275L200,275L200,354.6L181.6,365.3L163,354.3L163,157.3L181.5,146.7L200,157.5L200,237L312,237L312,157.4L330.5,146.8L349,157.6L349,354.6Z" style="fill:rgb(14,131,205);fill-rule:nonzero;"/>
            </g>
        </g>
    </g>
    <g transform="matrix(0.5,0,0,0.5,668.688,392)">
        <g id="error">
            <g>
                <path d="M100,0C44.8,0 0,44.8 0,100C0,155.2 44.8,200 100,200C155.2,200 200,155.2 200,100C200,44.8 155.2,0 100,0ZM142.7,131.3C145.8,134.4 145.8,139.5 142.7,142.6C141.1,144.2 139.1,144.9 137,144.9C134.9,144.9 132.9,144.1 131.3,142.6L100,111.3L68.7,142.6C67.1,144.2 65.1,144.9 63,144.9C60.9,144.9 58.9,144.1 57.3,142.6C54.2,139.5 54.2,134.4 57.3,131.3L88.7,100L57.3,68.7C54.2,65.6 54.2,60.5 57.3,57.4C60.4,54.3 65.5,54.3 68.6,57.4L100,88.7L131.3,57.4C134.4,54.3 139.5,54.3 142.6,57.4C145.7,60.5 145.7,65.6 142.6,68.7L111.3,100L142.7,131.3Z" style="fill:rgb(207,55,54);fill-rule:nonzero;"/>
            </g>
        </g>
    </g>
</svg>
